<?xml version="1.0" standalone="no"?>
<!DOCTYPE svg PUBLIC "-//W3C//DTD SVG 20010904//EN"
 "http://www.w3.org/TR/2001/REC-SVG-20010904/DTD/svg10.dtd">
<svg version="1.0" xmlns="http://www.w3.org/2000/svg"
 width="140.000000pt" height="140.000000pt" viewBox="0 0 140.000000 140.000000"
 preserveAspectRatio="xMidYMid meet">
<metadata>
Created by potrace 1.11, written by Peter Selinger 2001-2013
</metadata>
<g transform="translate(0.000000,140.000000) scale(0.100000,-0.100000)"
fill="#000000" stroke="none">
<path d="M95 1231 c-43 -18 -59 -50 -63 -122 -3 -47 0 -74 9 -85 21 -26 39 10
39 81 0 34 5 66 12 73 19 19 1121 17 1137 -2 8 -9 12 -119 14 -359 1 -190 5
-349 9 -352 4 -4 14 -5 23 -1 14 5 15 45 13 361 l-3 355 -28 27 -27 28 -558 2
c-306 1 -566 -2 -577 -6z"/>
<path d="M113 1114 c-3 -8 -1 -20 4 -25 5 -5 221 -8 549 -7 531 3 539 3 539
23 0 20 -8 20 -543 23 -486 2 -543 1 -549 -14z"/>
<path d="M695 970 c-4 -6 -31 -97 -60 -203 -45 -165 -51 -194 -39 -207 9 -9
17 -11 23 -5 12 13 111 372 111 403 0 23 -23 31 -35 12z"/>
<path d="M37 963 c-4 -3 -7 -136 -7 -295 0 -314 3 -332 55 -356 18 -8 97 -12
247 -12 l220 0 -6 -37 c-13 -73 -14 -73 -65 -73 -50 0 -89 -19 -77 -38 10 -17
502 -17 512 0 12 19 -27 38 -77 38 -51 0 -52 0 -65 73 l-6 37 221 0 c175 0
228 3 250 15 47 24 67 105 27 105 -9 0 -18 -11 -22 -25 -14 -56 -3 -55 -584
-55 -469 0 -538 2 -558 16 -22 15 -22 17 -22 299 0 156 -3 290 -6 299 -6 16
-26 21 -37 9z m691 -712 c19 -61 19 -61 -68 -61 -87 0 -87 0 -68 61 l11 39 57
0 57 0 11 -39z"/>
<path d="M438 839 c-49 -33 -88 -65 -88 -72 0 -12 182 -137 199 -137 12 0 21
25 13 37 -4 5 -38 30 -75 55 l-69 46 77 52 c42 28 74 57 72 63 -8 26 -46 13
-129 -44z"/>
<path d="M757 893 c-15 -14 -4 -25 66 -70 39 -25 74 -48 77 -50 2 -2 -10 -15
-28 -29 -35 -28 -40 -42 -18 -50 17 -7 116 56 116 73 0 14 -172 133 -193 133
-7 0 -17 -3 -20 -7z"/>
<path d="M776 679 c-21 -16 -24 -24 -15 -35 9 -11 16 -11 41 2 17 9 28 22 26
31 -5 25 -22 26 -52 2z"/>
<path d="M110 431 c0 -10 8 -22 17 -25 9 -4 257 -4 550 0 509 7 533 8 533 26
0 17 -22 18 -550 18 -533 0 -550 -1 -550 -19z"/>
</g>
</svg>
