<svg xmlns="http://www.w3.org/2000/svg" viewBox="0 0 50.664539 50.575439" height="24" width="24">
  <g stroke-width=".282">
    <path
      d="M5.79 50.376c-.95-.25-1.767-.616-2.522-1.13-.637-.434-1.568-1.33-1.922-1.853-.432-.636-.93-1.726-1.132-2.482-.206-.77-.21-1.077-.213-19.584C-.002 6.913 0 6.508.205 5.716.92 2.92 3.138.79 5.998.155 6.82-.028 43.556-.06 44.443.12c2.4.49 4.29 1.933 5.38 4.11.87 1.733.792-.173.832 20.386.025 13.08.002 18.573-.082 19.257-.39 3.202-2.6 5.685-5.777 6.496-.813.207-1.095.21-19.55.204-17.845-.005-18.76-.015-19.457-.198z"
      fill="#f06a35"/>
    <path
      d="M32.5 40.876c2.277-.31 4.06-1.223 5.734-2.933 1.21-1.236 1.968-2.575 2.463-4.35.206-.74.223-1.1.26-5.432.03-3.27.006-4.8-.08-5.187-.123-.56-.473-1.08-.872-1.298-.123-.067-.91-.152-1.75-.19-1.405-.062-1.563-.09-2.006-.35-.705-.412-.9-.858-.9-2.067-.005-2.31-.967-4.457-2.867-6.394-1.354-1.38-2.864-2.313-4.588-2.837-.413-.125-1.337-.167-4.432-.204-4.856-.057-5.934.042-7.587.7-3.048 1.215-5.238 3.773-6.037 7.053-.15.616-.18 1.604-.215 7.276-.045 7.105.005 8.15.448 9.557.367 1.162.737 1.875 1.5 2.887 1.452 1.928 3.63 3.32 5.805 3.713 1.036.187 13.815.234 15.123.056z"
      fill="#fff"/>
    <path
      d="M19.07 21.37c-1.162-.322-1.597-1.99-.742-2.854.547-.552.698-.573 4.12-.573 3.07 0 3.174.006 3.625.234.652.33.935.794.935 1.534 0 .668-.266 1.136-.86 1.512-.318.202-.508.215-3.518.233-1.858.01-3.338-.025-3.56-.086zM18.925 32.604c-.5-.218-.964-.822-1.045-1.358-.076-.51.18-1.213.574-1.57.496-.448.713-.463 6.81-.467 6.274-.006 6.24-.01 6.836.546.84.785.663 2.18-.35 2.755l-1.04.17-5.422.064c-4.765.055-6.115-.032-6.363-.14z"
      fill="#f06a35"/>
  </g>
</svg>
