<?xml version="1.0" standalone="no"?>
<!DOCTYPE svg PUBLIC "-//W3C//DTD SVG 20010904//EN"
 "http://www.w3.org/TR/2001/REC-SVG-20010904/DTD/svg10.dtd">
<svg version="1.0" xmlns="http://www.w3.org/2000/svg"
 width="195.000000pt" height="196.000000pt" viewBox="0 0 195.000000 196.000000"
 preserveAspectRatio="xMidYMid meet">

<g transform="translate(0.000000,196.000000) scale(0.100000,-0.100000)"
fill="#C2C2C2" stroke="none">
<path d="M869 1940 c-641 -79 -1025 -742 -777 -1338 202 -485 773 -716 1264
-511 487 203 718 773 512 1267 -88 213 -270 400 -486 499 -148 69 -357 103
-513 83z m436 -509 c160 -107 300 -203 313 -214 22 -20 22 -25 22 -237 0 -212
0 -217 -22 -237 -13 -11 -153 -108 -313 -214 -184 -123 -299 -194 -315 -194
-16 0 -131 71 -315 194 -159 106 -300 203 -312 214 -23 20 -23 25 -23 237 0
212 0 217 23 237 12 11 155 109 317 217 193 129 302 196 315 193 11 -2 151
-90 310 -196z"/>
<path d="M722 1330 c-112 -75 -208 -142 -213 -147 -6 -6 24 -32 86 -73 l96
-63 116 79 c63 43 117 84 120 90 2 5 2 65 1 131 l-3 121 -203 -138z"/>
<path d="M1052 1340 l3 -133 117 -80 117 -80 96 63 c77 51 93 66 83 76 -7 6
-104 73 -216 149 l-203 137 3 -132z"/>
<path d="M892 1048 c-50 -35 -92 -65 -92 -68 0 -3 43 -34 95 -69 l95 -65 95
65 c52 35 95 66 95 69 0 6 -182 130 -191 130 -3 0 -46 -28 -97 -62z"/>
<path d="M450 980 l0 -92 28 18 c85 55 102 67 102 74 0 7 -17 19 -102 74 l-28
18 0 -92z"/>
<path d="M1465 1030 c-33 -22 -60 -44 -60 -50 0 -6 27 -28 60 -50 l60 -40 3
45 c2 25 2 65 0 90 l-3 45 -60 -40z"/>
<path d="M592 848 c-74 -49 -90 -64 -80 -73 7 -7 104 -74 216 -149 l202 -137
0 130 0 130 -109 75 c-60 42 -115 78 -123 81 -7 3 -55 -23 -106 -57z"/>
<path d="M1167 830 l-117 -81 0 -130 0 -130 203 137 c111 75 208 142 215 149
10 9 -6 24 -81 73 -51 34 -95 62 -98 62 -3 0 -58 -36 -122 -80z"/>
</g>
</svg>
