<?xml version="1.0" standalone="no"?>
<!DOCTYPE svg PUBLIC "-//W3C//DTD SVG 20010904//EN"
 "http://www.w3.org/TR/2001/REC-SVG-20010904/DTD/svg10.dtd">
<svg version="1.0" xmlns="http://www.w3.org/2000/svg"
 width="256.000000pt" height="256.000000pt" viewBox="0 0 256.000000 256.000000"
 preserveAspectRatio="xMidYMid meet">
<g transform="translate(0.000000,256.000000) scale(0.100000,-0.100000)"
fill="#C1C1C1" stroke="none">
<path d="M1052 2546 c-93 -18 -199 -50 -286 -87 l-68 -29 -284 0 -284 0 0
-283 0 -283 -36 -87 c-19 -48 -47 -131 -62 -185 -24 -91 -26 -111 -26 -312 0
-201 2 -221 26 -312 15 -54 43 -137 62 -185 l36 -87 0 -283 0 -283 283 0 283
0 87 -36 c48 -19 131 -47 185 -62 91 -24 111 -26 312 -26 201 0 221 2 312 26
54 15 137 43 185 62 l87 36 283 0 283 0 0 283 0 283 36 87 c19 48 47 131 62
185 24 91 26 111 26 312 0 201 -2 221 -26 312 -15 54 -43 137 -62 185 l-36 87
0 283 0 283 -283 0 -283 0 -87 36 c-169 69 -260 86 -467 90 -128 2 -207 -1
-258 -10z m-396 -139 c-239 -150 -353 -264 -503 -503 -9 -15 -12 37 -12 249
l-1 267 268 -1 c211 0 263 -3 248 -12z m1763 -254 c0 -212 -3 -264 -12 -249
-150 239 -264 353 -503 503 -15 9 37 12 249 12 l267 1 -1 -267z m-494 -311
c-66 -49 -238 -174 -382 -279 l-261 -191 -374 270 c-205 149 -377 274 -382
279 -6 5 315 9 754 9 l764 0 -119 -88z m-1207 -345 c285 -209 551 -397 562
-397 6 0 104 66 218 147 383 271 471 333 476 333 4 0 6 -214 6 -475 l0 -475
-700 0 -700 0 0 480 c0 264 2 480 5 480 3 0 63 -42 133 -93z m-506 -932 c106
-161 236 -282 444 -412 15 -9 -37 -12 -248 -12 l-268 -1 1 268 c0 211 3 263
12 248 7 -11 33 -51 59 -91z m2205 -422 c-2 -2 -123 -2 -268 -1 l-264 3 41 22
c64 34 194 135 263 204 69 69 170 199 204 263 l22 41 3 -264 c1 -145 1 -266
-1 -268z"/>
</g>
</svg>
