<?xml version="1.0" standalone="no"?>
<!DOCTYPE svg PUBLIC "-//W3C//DTD SVG 20010904//EN"
 "http://www.w3.org/TR/2001/REC-SVG-20010904/DTD/svg10.dtd">
<svg version="1.0" xmlns="http://www.w3.org/2000/svg"
 width="400.000000pt" height="400.000000pt" viewBox="0 0 400.000000 400.000000"
 preserveAspectRatio="xMidYMid meet">
<metadata>
Created by potrace 1.15, written by Peter Selinger 2001-2017
</metadata>
<g transform="translate(0.000000,400.000000) scale(0.100000,-0.100000)"
fill="#C1C1C1" stroke="none">
<path d="M1695 3954 c-879 -134 -1550 -808 -1679 -1685 -21 -141 -21 -427 0
-568 129 -880 805 -1556 1685 -1685 141 -21 427 -21 568 0 734 108 1346 607
1590 1298 79 223 111 418 111 671 0 192 -15 327 -56 486 -197 786 -840 1365
-1645 1483 -132 20 -447 20 -574 0z m1563 -886 c9 -17 9 -39 1 -83 -6 -33 -13
-81 -16 -107 -3 -27 -9 -48 -14 -48 -5 0 -9 -20 -9 -45 0 -25 -4 -45 -10 -45
-5 0 -10 -19 -10 -42 -1 -24 -5 -63 -11 -88 -5 -25 -12 -64 -16 -87 -3 -24
-10 -43 -14 -43 -5 0 -9 -16 -9 -35 0 -19 -4 -43 -9 -53 -5 -9 -14 -51 -20
-92 -7 -41 -14 -92 -17 -112 -4 -21 -10 -38 -15 -38 -5 0 -9 -19 -9 -43 0 -23
-7 -69 -15 -100 -8 -32 -15 -69 -15 -82 0 -14 -4 -25 -10 -25 -5 0 -10 -20
-10 -45 0 -25 -4 -45 -9 -45 -4 0 -11 -33 -15 -72 -4 -40 -11 -77 -16 -82 -6
-6 -10 -27 -10 -48 0 -21 -4 -38 -10 -38 -5 0 -10 -21 -10 -46 0 -25 -4 -43
-9 -40 -5 3 -12 -30 -15 -74 -4 -44 -12 -80 -17 -80 -5 0 -9 -20 -9 -45 0 -25
-4 -45 -8 -45 -7 0 -22 -76 -38 -197 -3 -24 -10 -43 -15 -43 -5 0 -9 -21 -9
-46 0 -25 -4 -43 -9 -40 -5 3 -12 -28 -16 -69 -4 -41 -11 -77 -16 -81 -5 -3
-9 -18 -9 -35 0 -16 -5 -39 -12 -52 -26 -50 -29 -59 -24 -64 3 -3 -1 -12 -9
-19 -21 -21 -87 -18 -113 6 -12 11 -26 20 -32 20 -6 0 -9 4 -6 9 4 5 -6 12
-22 16 -15 3 -34 15 -42 25 -8 11 -20 20 -27 20 -7 0 -13 4 -13 9 0 5 -10 13
-22 17 -13 4 -30 15 -38 24 -8 9 -25 20 -37 24 -13 4 -23 12 -23 17 0 5 -5 9
-11 9 -7 0 -19 8 -28 18 -9 9 -33 26 -53 36 -21 11 -38 23 -38 28 0 4 -7 8
-15 8 -8 0 -15 4 -15 10 0 5 -11 12 -25 16 -14 3 -25 10 -25 15 0 5 -7 9 -16
9 -8 0 -13 3 -10 8 2 4 -13 16 -35 26 -21 11 -39 23 -39 28 0 4 -7 8 -17 8 -9
0 -13 3 -10 6 4 4 -11 16 -33 26 -22 11 -40 24 -40 29 0 5 -5 9 -11 9 -6 0
-17 7 -25 15 -26 26 -60 17 -104 -25 -23 -22 -46 -40 -51 -40 -6 0 -7 -4 -4
-10 3 -5 1 -10 -4 -10 -10 0 -63 -47 -151 -135 -20 -19 -41 -35 -48 -35 -7 0
-10 -4 -7 -10 3 -5 2 -10 -3 -10 -6 0 -32 -23 -60 -50 -28 -28 -59 -50 -71
-50 -28 0 -69 57 -77 108 -4 23 -10 42 -15 42 -5 0 -9 11 -9 25 0 14 -4 25 -9
25 -5 0 -12 22 -16 50 -4 27 -11 52 -16 56 -5 3 -9 16 -9 30 0 13 -4 24 -10
24 -5 0 -10 8 -10 19 0 10 -7 35 -15 54 -8 20 -15 50 -15 67 0 16 -4 30 -10
30 -5 0 -10 11 -10 25 0 14 -4 25 -9 25 -5 0 -11 12 -14 28 -18 85 -33 142
-40 148 -4 4 -7 18 -7 31 0 13 -4 23 -10 23 -5 0 -10 11 -10 24 0 31 -36 76
-61 76 -10 0 -19 5 -19 10 0 6 -11 10 -25 10 -14 0 -25 4 -25 9 0 5 -20 12
-45 15 -25 4 -45 11 -45 17 0 5 -11 9 -25 9 -14 0 -25 5 -25 10 0 6 -10 10
-22 10 -13 0 -36 7 -52 15 -15 8 -37 15 -47 15 -11 0 -19 5 -19 10 0 6 -12 10
-26 10 -14 0 -23 4 -20 9 3 5 -14 12 -39 15 -24 4 -47 11 -50 17 -4 5 -15 9
-26 9 -10 0 -19 5 -19 10 0 6 -11 10 -25 10 -14 0 -25 4 -25 9 0 5 -18 11 -39
15 -46 7 -111 66 -111 100 0 39 71 96 119 96 12 0 21 5 21 10 0 6 9 10 19 10
11 0 22 4 25 9 4 5 24 12 46 16 22 4 42 11 46 16 3 5 16 9 30 9 13 0 24 5 24
10 0 6 9 10 19 10 11 0 22 4 25 9 4 5 24 12 46 16 22 4 40 11 40 16 0 5 11 9
25 9 14 0 25 5 25 10 0 6 9 10 19 10 11 0 22 4 26 9 3 6 26 13 50 17 25 3 45
10 45 15 0 5 9 9 20 9 11 0 20 4 20 9 0 5 18 12 40 16 22 4 42 11 46 16 3 5
16 9 30 9 13 0 24 5 24 10 0 6 9 10 19 10 11 0 22 4 25 9 4 5 24 12 46 16 22
4 40 11 40 16 0 5 11 9 25 9 14 0 25 5 25 10 0 6 9 10 19 10 11 0 22 4 26 9 3
6 26 13 50 17 25 3 42 10 39 15 -3 5 6 9 20 9 13 0 26 3 28 8 4 9 100 42 122
42 9 0 16 5 16 10 0 6 9 10 20 10 11 0 20 4 20 9 0 6 20 13 45 17 25 3 45 10
45 15 0 5 9 9 19 9 11 0 23 5 26 10 3 6 15 10 26 10 10 0 19 4 19 9 0 6 20 13
45 17 25 3 45 10 45 15 0 5 9 9 19 9 11 0 23 5 26 10 3 6 14 10 23 10 9 0 30
7 46 15 15 8 37 15 47 15 11 0 19 5 19 10 0 6 6 10 14 10 7 0 27 7 42 15 16 8
39 15 52 15 12 0 22 5 22 10 0 6 11 10 25 10 14 0 25 5 25 10 0 6 9 10 19 10
11 0 22 4 25 9 4 5 24 12 46 16 22 4 40 11 40 16 0 5 11 9 25 9 14 0 25 4 25
8 0 4 29 17 65 27 36 11 65 23 65 28 0 4 11 7 25 7 14 0 25 4 25 9 0 6 20 13
45 17 25 3 45 10 45 15 0 5 7 9 15 9 8 0 23 4 33 9 43 23 92 41 111 41 12 0
21 5 21 10 0 6 7 10 15 10 8 0 23 4 33 9 43 23 92 41 111 41 12 0 21 5 21 10
0 6 26 10 58 10 51 0 60 -3 70 -22z"/>
<path d="M2711 2663 c-8 -3 -25 -17 -38 -29 -13 -13 -30 -24 -38 -24 -8 0 -15
-4 -15 -10 0 -5 -7 -10 -15 -10 -8 0 -15 -4 -15 -10 0 -5 -7 -10 -15 -10 -8 0
-15 -4 -15 -10 0 -5 -11 -12 -25 -16 -14 -3 -25 -10 -25 -15 0 -5 -7 -9 -15
-9 -8 0 -15 -3 -15 -8 0 -4 -16 -16 -35 -26 -19 -11 -35 -23 -35 -28 0 -4 -7
-8 -15 -8 -8 0 -15 -4 -15 -9 0 -5 -11 -12 -25 -15 -14 -4 -25 -11 -25 -16 0
-6 -7 -10 -15 -10 -8 0 -15 -4 -15 -10 0 -5 -7 -10 -15 -10 -8 0 -15 -4 -15
-10 0 -5 -11 -12 -25 -16 -14 -3 -25 -10 -25 -15 0 -5 -7 -9 -15 -9 -8 0 -15
-4 -15 -8 0 -5 -17 -17 -37 -28 -21 -10 -46 -27 -57 -36 -11 -10 -29 -21 -40
-24 -12 -4 -28 -15 -37 -25 -9 -11 -21 -19 -28 -19 -6 0 -11 -4 -11 -9 0 -5
-11 -12 -25 -15 -14 -4 -25 -11 -25 -16 0 -6 -7 -10 -15 -10 -8 0 -15 -4 -15
-8 0 -5 -17 -17 -37 -28 -21 -10 -46 -27 -57 -36 -11 -10 -29 -21 -40 -24 -12
-4 -28 -14 -36 -23 -8 -9 -32 -25 -52 -36 -21 -11 -38 -23 -38 -27 0 -5 -7 -8
-15 -8 -8 0 -15 -4 -15 -10 0 -5 -7 -10 -15 -10 -8 0 -15 -4 -15 -10 0 -5 -11
-12 -25 -16 -14 -3 -25 -10 -25 -15 0 -5 -7 -9 -15 -9 -8 0 -15 -4 -15 -9 0
-5 -10 -13 -22 -17 -13 -4 -30 -14 -38 -23 -8 -9 -33 -25 -55 -36 -22 -11 -47
-28 -56 -37 -9 -10 -21 -18 -28 -18 -6 0 -11 -4 -11 -10 0 -5 -11 -12 -25 -16
-14 -3 -25 -10 -25 -15 0 -5 -10 -9 -21 -9 -18 0 -20 -4 -14 -22 4 -13 12 -47
18 -75 6 -29 14 -53 19 -53 4 0 8 -13 8 -30 0 -16 5 -30 10 -30 6 0 10 -8 10
-19 0 -10 7 -35 15 -54 8 -20 15 -50 15 -67 0 -16 5 -30 10 -30 6 0 10 -11 10
-24 0 -14 5 -28 10 -31 6 -3 10 -19 10 -36 0 -16 4 -29 9 -29 6 0 10 -8 10
-18 1 -34 13 -82 22 -82 5 0 9 -16 9 -35 0 -19 5 -35 10 -35 6 0 10 -9 10 -20
0 -11 7 -20 15 -20 11 0 15 12 15 44 0 25 5 48 10 51 6 3 10 35 10 71 0 35 4
64 8 64 5 0 12 48 15 106 l7 106 152 150 c273 268 295 288 307 288 6 0 11 4
11 10 0 5 24 32 53 59 28 28 57 55 62 61 16 17 53 54 67 67 7 7 19 18 26 25 7
7 23 23 35 35 12 12 28 28 34 35 7 7 17 18 22 23 49 48 65 64 75 74 6 7 22 22
34 34 13 12 63 60 112 107 85 83 224 212 255 238 31 26 15 50 -24 35z"/>
</g>
</svg>
