<svg xmlns="http://www.w3.org/2000/svg" viewBox="0 0 10.5 10.5" height="24">
  <path
    d="M5.21 0C2.235 0-.177 2.412-.177 5.388c0 2.38 1.543 4.4 3.684 5.112.27.05.368-.117.368-.26 0-.128-.005-.467-.007-.916C2.37 9.65 2.053 8.6 2.053 8.6c-.245-.62-.598-.787-.598-.787-.49-.334.037-.327.037-.327.54.038.825.555.825.555.48.824 1.26.586 1.568.45.05-.35.188-.587.342-.722-1.196-.136-2.454-.598-2.454-2.662 0-.59.21-1.07.555-1.446-.056-.136-.24-.684.053-1.426 0 0 .453-.144 1.482.552.43-.12.89-.18 1.35-.18.456 0 .917.06 1.347.18 1.028-.696 1.48-.552 1.48-.552.294.742.11 1.29.053 1.426.346.377.554.857.554 1.446 0 2.07-1.26 2.525-2.46 2.658.194.167.366.495.366.998 0 .72-.007 1.3-.007 1.478 0 .144.097.312.37.26 2.14-.715 3.682-2.733 3.682-5.112C10.598 2.412 8.185 0 5.21 0"
    fill="#1b1817" fill-rule="evenodd" stroke-width=".033"/>
</svg>
