<svg xmlns="http://www.w3.org/2000/svg" viewBox="0 0 12 12" height="24">
  <g stroke-width=".033">
    <path
      d="M11.025 0H.878C.394 0 0 .384 0 .858v10.19c0 .473.394.858.878.858h10.147c.485 0 .88-.385.88-.86V.86c0-.474-.395-.858-.88-.858"
      fill="#0977b6"/>
    <path
      d="M2.648 1.64c.566 0 1.024.458 1.024 1.023s-.458 1.024-1.024 1.024c-.567 0-1.024-.46-1.024-1.024 0-.565.457-1.024 1.024-1.024m-.884 2.824h1.768v5.68H1.764v-5.68M4.64 4.464h1.693v.776h.024c.235-.447.81-.918 1.67-.918 1.787 0 2.118 1.177 2.118 2.707v3.115H8.38V7.383c0-.66-.012-1.507-.917-1.507-.92 0-1.06.718-1.06 1.46v2.81H4.64V4.463"
      fill="#fff"/>
  </g>
</svg>
